<svg xmlns="http://www.w3.org/2000/svg" viewBox="0 12.819999694824219 122.33999633789062 36.84000015258789" data-asc="0.9931640625" width="122.33999633789062" height="36.84000015258789"><defs/><g><g fill="#000000"><g transform="translate(0, 0)"><path d="M33.35 18.26L30.57 18.46Q30.03 18.48 29.77 18.84Q29.52 19.19 29.52 19.56L29.52 49.66L25.61 49.66L7.01 21.66L7.01 46.22Q7.01 46.58 7.26 46.92Q7.52 47.27 8.06 47.31L10.91 47.51L10.91 49.66L0.10 49.66L0.10 47.51L2.95 47.31Q3.49 47.27 3.77 46.92Q4.05 46.58 4.05 46.22L4.05 19.56Q4.05 19.19 3.77 18.84Q3.49 18.48 2.95 18.46L0 18.26L0 16.11L9.91 16.11L9.91 17.36L26.56 42.50L26.56 19.56Q26.56 19.19 26.29 18.84Q26.03 18.48 25.51 18.46L22.66 18.26L22.66 16.11L33.35 16.11L33.35 18.26ZM45.70 17.31Q45.70 18.58 44.82 19.49Q43.95 20.41 42.68 20.41Q41.41 20.41 40.49 19.49Q39.58 18.58 39.58 17.31Q39.58 16.02 40.49 15.14Q41.41 14.26 42.68 14.26Q43.95 14.26 44.82 15.14Q45.70 16.02 45.70 17.31M48.27 49.66L36.52 49.66L36.52 47.71L38.96 47.56Q40.01 47.49 40.01 46.46L40.01 28.61L36.57 28.61L36.57 26.86L42.68 24.95L44.65 24.95L44.65 46.46Q44.65 46.92 44.96 47.22Q45.26 47.51 45.70 47.56L48.27 47.71L48.27 49.66ZM76.17 49.66L68.16 49.66L68.16 47.71L61.91 38.31L59.13 38.31L59.13 46.46Q59.13 47.49 60.18 47.56L62.33 47.71L62.33 49.66L50.98 49.66L50.98 47.71L53.42 47.56Q54.47 47.49 54.47 46.46L54.47 16.41L50.68 16.41L50.68 14.75L57.08 12.82L59.13 12.82L59.13 36.87L60.13 36.87L67.48 28.56Q67.58 28.44 67.58 28.25Q67.58 27.76 67.07 27.71L65.01 27.51L65.01 25.56L74.73 25.56L74.73 27.51L71.53 27.86L64.92 34.91L73.54 47.41L76.17 47.71L76.17 49.66ZM91.53 49.66L78.34 49.66L78.34 47.51L81.32 47.31Q81.86 47.27 82.12 46.92Q82.37 46.58 82.37 46.22L82.37 19.56Q82.37 19.19 82.12 18.86Q81.86 18.53 81.32 18.51L78.34 18.31L78.34 16.11L91.53 16.11L91.53 18.31L88.48 18.51Q87.96 18.53 87.70 18.86Q87.43 19.19 87.43 19.56L87.43 46.22Q87.43 46.58 87.70 46.92Q87.96 47.27 88.48 47.31L91.53 47.51L91.53 49.66ZM122.34 24.10L119.38 24.10L118.68 19.41Q118.51 18.55 117.85 18.55L110.69 18.55L110.69 46.22Q110.69 46.58 110.95 46.92Q111.21 47.27 111.74 47.31L114.94 47.51L114.94 49.66L101.39 49.66L101.39 47.51L104.59 47.31Q105.13 47.27 105.38 46.92Q105.64 46.58 105.64 46.22L105.64 18.55L98.44 18.55Q97.71 18.55 97.58 19.41L96.90 24.10L93.99 24.10L93.99 16.11L122.34 16.11L122.34 24.10Z"/></g></g></g></svg>