<?xml version="1.0"?>
<svg width="122.33999633789062" height="36.84000015258789" xmlns="http://www.w3.org/2000/svg" xmlns:svg="http://www.w3.org/2000/svg" data-asc="0.9931640625">

 <g class="layer">
  <title>Layer 1</title>
  <g id="svg_1" transform="translate(4.86026 3.64663) scale(1.11877 1.20672) translate(-4.86026 -3.64663) translate(5 3.82) matrix(0.740718 0 0 0.602246 0.860257 -6.89416)">
   <g fill="#f2f2f2" id="svg_2">
    <g id="svg_3" transform="translate(0, 0)">
     <path d="m33.35,18.26l-2.78,0.2q-0.54,0.02 -0.8,0.38q-0.25,0.35 -0.25,0.72l0,30.1l-3.91,0l-18.6,-28l0,24.56q0,0.36 0.25,0.7q0.26,0.35 0.8,0.39l2.85,0.2l0,2.15l-10.81,0l0,-2.15l2.85,-0.2q0.54,-0.04 0.82,-0.39q0.28,-0.34 0.28,-0.7l0,-26.66q0,-0.37 -0.28,-0.72q-0.28,-0.36 -0.82,-0.38l-2.95,-0.2l0,-2.15l9.91,0l0,1.25l16.65,25.14l0,-22.94q0,-0.37 -0.27,-0.72q-0.26,-0.36 -0.78,-0.38l-2.85,-0.2l0,-2.15l10.69,0l0,2.15zm12.35,-0.95q0,1.27 -0.88,2.18q-0.87,0.92 -2.14,0.92q-1.27,0 -2.19,-0.92q-0.91,-0.91 -0.91,-2.18q0,-1.29 0.91,-2.17q0.92,-0.88 2.19,-0.88q1.27,0 2.14,0.88q0.88,0.88 0.88,2.17m2.57,32.35l-11.75,0l0,-1.95l2.44,-0.15q1.05,-0.07 1.05,-1.1l0,-17.85l-3.44,0l0,-1.75l6.11,-1.91l1.97,0l0,21.51q0,0.46 0.31,0.76q0.3,0.29 0.74,0.34l2.57,0.15l0,1.95zm27.9,0l-8.01,0l0,-1.95l-6.25,-9.4l-2.78,0l0,8.15q0,1.03 1.05,1.1l2.15,0.15l0,1.95l-11.35,0l0,-1.95l2.44,-0.15q1.05,-0.07 1.05,-1.1l0,-30.05l-3.79,0l0,-1.66l6.4,-1.93l2.05,0l0,24.05l1,0l7.35,-8.31q0.1,-0.12 0.1,-0.31q0,-0.49 -0.51,-0.54l-2.06,-0.2l0,-1.95l9.72,0l0,1.95l-3.2,0.35l-6.61,7.05l8.62,12.5l2.63,0.3l0,1.95zm15.36,0l-13.19,0l0,-2.15l2.98,-0.2q0.54,-0.04 0.8,-0.39q0.25,-0.34 0.25,-0.7l0,-26.66q0,-0.37 -0.25,-0.7q-0.26,-0.33 -0.8,-0.35l-2.98,-0.2l0,-2.2l13.19,0l0,2.2l-3.05,0.2q-0.52,0.02 -0.78,0.35q-0.27,0.33 -0.27,0.7l0,26.66q0,0.36 0.27,0.7q0.26,0.35 0.78,0.39l3.05,0.2l0,2.15zm30.81,-25.56l-2.96,0l-0.7,-4.69q-0.17,-0.86 -0.83,-0.86l-7.16,0l0,27.67q0,0.36 0.26,0.7q0.26,0.35 0.79,0.39l3.2,0.2l0,2.15l-13.55,0l0,-2.15l3.2,-0.2q0.54,-0.04 0.79,-0.39q0.26,-0.34 0.26,-0.7l0,-27.67l-7.2,0q-0.73,0 -0.86,0.86l-0.68,4.69l-2.91,0l0,-7.99l28.35,0l0,7.99z" id="svg_4"/>
    </g>
   </g>
  </g>
 </g>
</svg>